<svg xmlns="http://www.w3.org/2000/svg" width="382" height="77" viewBox="0 0 382 77" fill="none">
    <rect x="164.098" y="11.324" width="53.8038" height="53.8038" rx="26.9019" fill="#FA3812" />
    <path
        d="M207.079 43.8411C206.347 42.7432 205.304 41.8884 204.083 41.3857C203.815 41.274 203.539 41.1804 203.257 41.1055C202.737 38.4157 201.102 37.1408 199.464 36.5463L192.558 34.088C189.828 33.1132 188.736 31.5525 188.736 29.563C188.736 27.5735 190.803 25.4668 193.653 25.4668C196.503 25.4668 199.581 28.2366 201.025 32.996H201.96V24.4149H200.985L199.621 26.7931C198.85 25.9832 197.925 25.335 196.9 24.8864C195.875 24.4378 194.771 24.1978 193.653 24.1804H192.872C191.024 22.9084 188.833 22.2285 186.589 22.231C179.958 22.231 173.795 29.9546 173.795 38.2242C173.795 46.4938 179.958 54.1803 186.589 54.1803C187.987 54.2034 189.375 53.9499 190.674 53.4343C191.973 52.9187 193.158 52.1512 194.159 51.176L195.642 53.983H196.811V52.2565C197.981 53.4313 199.546 54.1285 201.201 54.2124C202.856 54.2962 204.484 53.7605 205.765 52.7099C207.047 51.6592 207.892 50.1688 208.135 48.5292C208.378 46.8896 208.001 45.2183 207.079 43.8411ZM186.67 52.6967C182.379 52.6967 178.946 49.5752 178.946 42.9064V33.622C178.946 26.9503 182.61 23.8289 186.67 23.8289C187.99 23.8263 189.281 24.2207 190.374 24.9608C189.201 25.551 188.216 26.4556 187.527 27.5735C186.861 28.7087 186.51 30.0017 186.512 31.3181C186.512 34.6339 188.033 36.7035 190.414 37.521L196.108 39.5505C197.287 39.9343 198.397 40.5015 199.398 41.2313C198.425 41.5579 197.54 42.1059 196.814 42.8321H196.811V41.3028H195.602C194.43 48.6777 190.96 52.6967 186.67 52.6967ZM205.696 51.7134C204.732 52.677 203.463 53.2764 202.107 53.4097C200.75 53.543 199.39 53.2017 198.256 52.4442C197.123 51.6866 196.288 50.5596 195.893 49.2552C195.497 47.9508 195.567 46.5496 196.089 45.2905C196.611 44.0314 197.553 42.9922 198.755 42.3501C199.957 41.7079 201.345 41.5025 202.682 41.7688C204.019 42.0351 205.222 42.7567 206.086 43.8106C206.95 44.8645 207.423 46.1855 207.422 47.5486C207.424 48.3225 207.273 49.0891 206.976 49.804C206.68 50.519 206.245 51.1679 205.696 51.7134Z"
        fill="#FEFDFC" />
    <path d="M200.486 48.4407V51.1848H202.739V46.0881H200.486V48.4407Z" fill="#FEFDFC" />
    <path d="M197.996 49.2181L199.543 51.1847H200.246V48.0833H197.996V49.2181Z" fill="#FEFDFC" />
    <path
        d="M202.982 44.0642V46.7798V48.0804V51.1847H203.688L205.232 49.2581V48.0804V46.7798V45.8193L203.688 44.0642H202.982Z"
        fill="#FEFDFC" />
</svg>
